<svg id="Capa_1" enable-background="new 0 0 512 512" height="512" viewBox="0 0 512 512" width="512" xmlns="http://www.w3.org/2000/svg"><g><path d="m430.452 245.999-174.452 66.709-217.533 83.276 43.066 112.031 174.467-66.718 217.533-83.282c23.013-8.847 38.467-31.362 38.467-56.015 0-42.16-42.48-71.078-81.548-56.001z" fill="#6d1d40"/><path d="m512 302c0-42.16-42.48-71.078-81.548-56.001l-174.452 66.709v128.589l217.533-83.282c23.013-8.847 38.467-31.362 38.467-56.015z" fill="#58072a"/><path d="m256 312.708-174.452-66.709c-39.068-15.077-81.548 13.841-81.548 56.001 0 24.653 15.454 47.168 38.467 56.016l217.533 83.281 174.467 66.718 43.066-112.031z" fill="#873a62"/><path d="m473.533 395.984-217.533-83.276v128.589l174.467 66.719z" fill="#6d1d40"/><path d="m452 512c-33.091 0-60-26.909-60-60s26.909-60 60-60 60 26.909 60 60-26.909 60-60 60z" fill="#ffe1ba"/><path d="m452 422c-16.538 0-30 13.462-30 30s13.462 30 30 30 30-13.462 30-30-13.462-30-30-30z" fill="#ffbfab"/><path d="m0 452c0-33.091 26.909-60 60-60s60 26.909 60 60-26.909 60-60 60-60-26.909-60-60z" fill="#ffbfab"/><path d="m30 452c0 16.538 13.462 30 30 30s30-13.462 30-30-13.462-30-30-30-30 13.462-30 30z" fill="#f89580"/><path d="m276.713 13.654-10.108-9.814c-2.864-2.864-6.696-3.812-10.605-3.814-1.932 0-3.878-.209-5.742.562-5.611 2.314-9.258 7.793-9.258 13.857 0 38.789-28.012 68.355-56.605 96.949-31.656 31.656-64.395 64.395-64.395 115.606 0 74.443 61.557 135 136 135s136-60.557 136-135c0-101.162-78.183-177.765-115.287-213.346z" fill="#fed843"/><path d="m392 227c0-101.162-78.183-177.765-115.287-213.346l-10.108-9.814c-2.864-2.864-6.696-3.812-10.605-3.814v361.974c74.443 0 136-60.557 136-135z" fill="#fabe2c"/><path d="m296.873 174.456c-15.425-13.491-25.873-22.515-25.873-37.456 0-6.064-3.647-11.543-9.258-13.857-1.855-.778-3.809-.575-5.742-.575-3.896-.002-7.727.948-10.605 3.827-2.153 2.153-4.98 4.614-8.203 7.471-19.644 17.299-57.192 49.526-57.192 100.634 0 39.723 31.837 67.469 76 67.495.02 0 .038.005.059.005h.015c44.12-.044 75.926-27.803 75.926-67.5 0-29.312-19.468-46.348-35.127-60.044z" fill="#fabe2c"/><path d="m256.073 302c44.121-.044 75.927-27.803 75.927-67.5 0-29.312-19.468-46.348-35.127-60.044-15.425-13.491-25.873-22.515-25.873-37.456 0-6.064-3.647-11.543-9.258-13.857-1.855-.778-3.809-.575-5.742-.575v179.427c.02 0 .038.005.059.005z" fill="#ff9100"/></g></svg>